<svg xmlns="http://www.w3.org/2000/svg" width="38" height="38" fill="none"  fill-rule="evenodd" xmlns:v="https://vecta.io/nano"><path d="M19 38c10.493 0 19-8.507 19-19S29.493 0 19 0 0 8.507 0 19s8.507 19 19 19z" fill="#3456f3"/><path d="M24.866 22c-.36 0-.686.197-.894.491C22.897 24.019 21.137 25 19.185 25c-3.201 0-5.885-2.637-5.885-6s2.684-6 5.885-6c1.952 0 3.712.981 4.788 2.508.207.294.534.492.894.492h3.475c.662 0 1.141-.634.888-1.245C27.586 10.787 23.707 8 19.185 8 13.173 8 8.3 12.925 8.3 19s4.873 11 10.885 11c4.523 0 8.401-2.787 10.045-6.755.253-.612-.226-1.245-.888-1.245h-3.475z" fill="#fff"/></svg>